Coordinates
version=1
nRows=13
nColumns=40
inDegrees=yes

Units are S.I. units (second, meters, Newtons, ...)
Angles are in degrees.

endheader
time	pelvis_tilt	pelvis_list	pelvis_rotation	pelvis_tx	pelvis_ty	pelvis_tz	hip_flexion_r	hip_adduction_r	hip_rotation_r	knee_angle_r	knee_angle_r_beta	ankle_angle_r	subtalar_angle_r	mtp_angle_r	hip_flexion_l	hip_adduction_l	hip_rotation_l	knee_angle_l	knee_angle_l_beta	ankle_angle_l	subtalar_angle_l	mtp_angle_l	lumbar_extension	lumbar_bending	lumbar_rotation	arm_flex_r	arm_add_r	arm_rot_r	elbow_flex_r	pro_sup_r	wrist_flex_r	wrist_dev_r	arm_flex_l	arm_add_l	arm_rot_l	elbow_flex_l	pro_sup_l	wrist_flex_l	wrist_dev_l
      5.25000000	     -2.70664558	     14.79727310	     76.38441607	      0.59192616	      0.97404040	     -1.00238908	     13.47368680	     -0.60618194	     11.27595168	      2.57477803	      0.04493835	      5.98430232	      0.00000000	      0.00000000	    -29.85614174	     12.43005079	    -12.98895574	      3.36772144	      0.05877783	     19.56384389	      0.00000000	      0.00000000	    -29.82274463	     -9.52948145	      2.06438055	      5.44429453	     -8.49297743	      6.27173797	    142.49272054	     88.03968200	      0.00000000	      0.00000000	      4.65208259	    -11.66051583	     -2.08081219	    141.27598910	     78.21222065	      0.00000000	      0.00000000
      5.26000000	     -2.76216359	     14.70950818	     76.37991817	      0.59304012	      0.97236568	     -1.00285382	     14.26468789	     -0.43232017	     10.55671391	      4.61960353	      0.08062729	      6.75891675	      0.00000000	      0.00000000	    -29.86026161	     12.37996522	    -13.36606985	      4.77181710	      0.08328392	     19.50242698	      0.00000000	      0.00000000	    -29.64009186	     -9.55121724	      2.13537609	      5.45982565	     -8.45562656	      6.29151279	    142.47664724	     88.07804249	      0.00000000	      0.00000000	      4.53262070	    -11.33505898	     -2.12369912	    141.19395701	     77.89326681	      0.00000000	      0.00000000
      5.27000000	     -2.85350062	     14.61984094	     76.41586955	      0.59396761	      0.97086462	     -1.00368913	     15.12115518	     -0.34614563	      9.70578064	      7.09586124	      0.12384614	      7.55140069	      0.00000000	      0.00000000	    -29.86190626	     12.34613005	    -13.54187445	      6.18287284	      0.10791149	     19.32694508	      0.00000000	      0.00000000	    -29.40827325	     -9.55597424	      2.15248728	      5.45159605	     -8.47423119	      6.23606486	    142.44999069	     88.07649192	      0.00000000	      0.00000000	      4.33995271	    -11.01159232	     -2.26856081	    141.07276963	     78.52729369	      0.00000000	      0.00000000
      5.28000000	     -2.74529924	     14.61251065	     76.47325431	      0.59500770	      0.96979635	     -1.00476287	     15.54578835	     -0.13911063	      8.97918007	      9.22607526	      0.16102539	      7.72960743	      0.00000000	      0.00000000	    -29.86476404	     12.03421176	    -14.06316968	      7.83314180	      0.13671412	     19.27308642	      0.00000000	      0.00000000	    -29.28970544	     -9.35460147	      2.20255005	      5.42904723	     -8.52344038	      6.16084362	    142.48216195	     88.07512201	      0.00000000	      0.00000000	      4.12582778	    -10.64468893	     -2.36720482	    140.96933620	     78.74985610	      0.00000000	      0.00000000
      5.29000000	     -2.63804945	     14.55481275	     76.60056143	      0.59618401	      0.96879867	     -1.00641661	     15.87711996	      0.03584261	      8.24573420	     11.24183323	      0.19620700	      8.08377238	      0.00000000	      0.00000000	    -29.86635764	     11.68430596	    -14.11962746	      9.42033742	      0.16441590	     18.93608803	      0.00000000	      0.00000000	    -29.02461235	     -9.10377688	      2.19555786	      5.28349756	     -8.55746333	      6.17140224	    142.49266702	     88.06900101	      0.00000000	      0.00000000	      3.81216347	    -10.33483079	     -2.47890048	    140.88147635	     79.03916670	      0.00000000	      0.00000000
      5.30000000	     -2.38409853	     14.56375346	     76.77433557	      0.59753726	      0.96829569	     -1.00828869	     15.75880305	      0.30752662	      7.72124474	     12.58249208	      0.21960591	      7.91190192	      0.00000000	      0.00000000	    -29.86829782	     11.10245595	    -14.18789562	     11.20011060	      0.19547881	     18.18763687	      0.00000000	      0.00000000	    -28.85410587	     -8.71371359	      2.19575566	      5.13657654	     -8.58686156	      6.08189951	    142.51453611	     88.06938247	      0.00000000	      0.00000000	      3.51263336	    -10.09069036	     -2.54768892	    140.78870010	     79.22248514	      0.00000000	      0.00000000
      5.31000000	     -2.00961411	     14.64592781	     76.94741503	      0.59901561	      0.96821969	     -1.01034339	     15.39832650	      0.66146751	      7.18998336	     13.55576417	      0.23659272	      7.30168560	      0.00000000	      0.00000000	    -29.86936548	     10.36723326	    -14.28353939	     13.14190613	      0.22936953	     17.22235153	      0.00000000	      0.00000000	    -28.75648520	     -8.20243189	      2.23664298	      4.99174594	     -8.61546599	      5.94304636	    142.54576528	     88.06750347	      0.00000000	      0.00000000	      3.21691667	     -9.84683895	     -2.58678240	    140.69348592	     79.36140098	      0.00000000	      0.00000000
      5.32000000	     -1.52802269	     14.80527510	     77.15938556	      0.60056772	      0.96857209	     -1.01250711	     14.79535536	      1.06489182	      6.72302632	     14.26528252	      0.24897615	      6.17573555	      0.00000000	      0.00000000	    -29.86951588	      9.50541127	    -14.17441305	     15.23121546	      0.26583486	     16.37419919	      0.00000000	      0.00000000	    -28.74654812	     -7.57327735	      2.27301237	      4.86007709	     -8.67598974	      5.82478453	    142.57872258	     88.06442867	      0.00000000	      0.00000000	      2.92643385	     -9.58542234	     -2.61849050	    140.60070634	     79.49500264	      0.00000000	      0.00000000
      5.33000000	     -1.06051256	     15.05218319	     77.16623387	      0.60235553	      0.96927786	     -1.01459760	     14.13716106	      1.47394569	      6.76056296	     15.09184081	      0.26340231	      5.32369851	      0.00000000	      0.00000000	    -29.86715605	      8.82097516	    -13.87242451	     17.41083090	      0.30387632	     15.20861169	      0.00000000	      0.00000000	    -28.78677084	     -7.04634425	      2.48976963	      4.80311586	     -8.81395084	      5.69124939	    142.59011763	     88.05786075	      0.00000000	      0.00000000	      2.69538683	     -9.34958444	     -2.62701512	    140.49880071	     79.55817708	      0.00000000	      0.00000000
      5.34000000	     -0.42637913	     15.52850873	     77.24928512	      0.60407667	      0.97074348	     -1.01682919	     13.15339361	      1.90280053	      6.31401206	     15.90458227	      0.27758733	      4.65885841	      0.00000000	      0.00000000	    -29.86191398	      7.82278552	    -14.16617636	     20.08193868	      0.35049595	     13.44202605	      0.00000000	      0.00000000	    -29.12644382	     -6.36697174	      2.66016599	      4.74182936	     -9.00511252	      5.44987312	    142.71835486	     88.04580784	      0.00000000	      0.00000000	      2.50833758	     -9.12424338	     -2.58838883	    140.42237439	     79.64455565	      0.00000000	      0.00000000
      5.35000000	      0.60939473	     16.08783321	     77.74343713	      0.60533296	      0.97302342	     -1.01978954	     11.55912263	      2.57953809	      5.39616872	     16.12077240	      0.28136056	      4.11885146	      0.00000000	      0.00000000	    -29.86166554	      6.16914265	    -14.12533377	     23.06551656	      0.40256921	     12.00515361	      0.00000000	      0.00000000	    -29.59429365	     -5.09385906	      2.60990218	      4.59054757	     -9.17353768	      5.18572219	    142.78034732	     88.05550918	      0.00000000	      0.00000000	      2.18480954	     -8.80528460	     -2.56934636	    140.33242208	     79.94191105	      0.00000000	      0.00000000
      5.36000000	      1.36566251	     16.70578876	     77.52540103	      0.60701770	      0.97509214	     -1.02210563	     10.47217020	      3.14694242	      5.51572107	     17.30360781	      0.30200493	      4.33651541	      0.00000000	      0.00000000	    -29.85299127	      5.31169905	    -14.01915976	     25.79560553	      0.45021825	     10.03893377	      0.00000000	      0.00000000	    -30.05156324	     -4.40023413	      3.06407244	      4.66940630	     -9.54512931	      4.94567486	    142.90638441	     88.04792118	      0.00000000	      0.00000000	      1.98128037	     -8.39300444	     -2.55629428	    140.28994745	     79.99748877	      0.00000000	      0.00000000
      5.37000000	      2.87600953	     17.53184418	     77.86453573	      0.60825138	      0.97828643	     -1.02538096	      8.16981976	      4.30225600	      4.87101582	     17.09127133	      0.29829896	      4.26365375	      0.00000000	      0.00000000	    -29.84635719	      3.06168671	    -14.72407972	     29.24520039	      0.51042504	      6.72537190	      0.00000000	      0.00000000	    -30.82561462	     -2.74602814	      3.23848135	      4.54924765	     -9.91797077	      4.66901264	    143.07809812	     88.05371506	      0.00000000	      0.00000000	      1.66803696	     -7.99906988	     -2.53209793	    140.23559983	     80.22749969	      0.00000000	      0.00000000
